<svg height="38.053" viewBox="0 0 38.053 38.053" width="38.053" xmlns="http://www.w3.org/2000/svg"><g fill="#fff"><path d="m23.105 7.507c5.08 0 5.682.019 7.688.111a10.531 10.531 0 0 1 3.533.655 6.3 6.3 0 0 1 3.611 3.611 10.531 10.531 0 0 1 .655 3.533c.092 2.006.111 2.608.111 7.688s-.019 5.682-.111 7.688a10.531 10.531 0 0 1 -.655 3.533 6.3 6.3 0 0 1 -3.611 3.611 10.531 10.531 0 0 1 -3.533.655c-2.006.092-2.608.111-7.688.111s-5.682-.019-7.688-.111a10.531 10.531 0 0 1 -3.533-.655 6.3 6.3 0 0 1 -3.611-3.611 10.531 10.531 0 0 1 -.655-3.533c-.092-2.006-.111-2.608-.111-7.688s.019-5.682.111-7.688a10.531 10.531 0 0 1 .655-3.533 6.3 6.3 0 0 1 3.611-3.611 10.531 10.531 0 0 1 3.533-.655c2.006-.092 2.608-.111 7.688-.111m0-3.428c-5.167 0-5.815.022-7.845.114a13.966 13.966 0 0 0 -4.619.884 9.729 9.729 0 0 0 -5.564 5.564 13.966 13.966 0 0 0 -.884 4.619c-.093 2.029-.114 2.677-.114 7.845s.022 5.815.114 7.845a13.966 13.966 0 0 0 .884 4.619 9.729 9.729 0 0 0 5.564 5.564 13.966 13.966 0 0 0 4.619.884c2.029.093 2.677.114 7.845.114s5.815-.022 7.845-.114a13.966 13.966 0 0 0 4.619-.884 9.729 9.729 0 0 0 5.564-5.564 13.966 13.966 0 0 0 .884-4.619c.093-2.029.114-2.677.114-7.845s-.022-5.815-.114-7.845a13.966 13.966 0 0 0 -.884-4.619 9.729 9.729 0 0 0 -5.564-5.564 13.966 13.966 0 0 0 -4.619-.884c-2.029-.093-2.677-.114-7.845-.114z" transform="translate(-4.079 -4.079)"/><path d="m136.405 126.635a9.77 9.77 0 1 0 9.77 9.77 9.77 9.77 0 0 0 -9.77-9.77zm0 16.112a6.342 6.342 0 1 1 6.342-6.342 6.342 6.342 0 0 1 -6.342 6.342z" transform="translate(-117.379 -117.379)"/><ellipse cx="29.183" cy="8.87" rx="2.283" ry="2.283"/></g></svg>